<mxfile host="app.diagrams.net" modified="2021-10-12T07:09:55.053Z" agent="5.0 (Windows NT 10.0; Win64; x64) AppleWebKit/537.36 (KHTML, like Gecko) Chrome/89.0.4389.90 Safari/537.36" etag="E7fnQuHHgBjIsMFENs9k" version="14.9.9" type="github">
  <diagram name="Page-1" id="9361dd3d-8414-5efd-6122-117bd74ce7a7">
    <mxGraphModel dx="1822" dy="882" grid="1" gridSize="10" guides="1" tooltips="1" connect="1" arrows="1" fold="1" page="0" pageScale="1.5" pageWidth="826" pageHeight="1169" background="none" math="0" shadow="0">
      <root>
        <mxCell id="0" />
        <mxCell id="1" parent="0" />
        <mxCell id="eK3PUiwqns1HFzDT2PhF-165" value="" style="fillColor=#DEE8FF;strokeColor=none" parent="1" vertex="1">
          <mxGeometry x="-60" y="1471" width="1700" height="310" as="geometry" />
        </mxCell>
        <mxCell id="eK3PUiwqns1HFzDT2PhF-155" value="" style="fillColor=#DEE8FF;strokeColor=none" parent="1" vertex="1">
          <mxGeometry x="-60" y="1000" width="1700" height="400" as="geometry" />
        </mxCell>
        <mxCell id="eK3PUiwqns1HFzDT2PhF-150" value="" style="fillColor=#DEE8FF;strokeColor=none" parent="1" vertex="1">
          <mxGeometry x="-60" y="520" width="1700" height="460" as="geometry" />
        </mxCell>
        <mxCell id="69" value="" style="fillColor=#DEE8FF;strokeColor=none" parent="1" vertex="1">
          <mxGeometry x="-60" y="10" width="1700" height="500" as="geometry" />
        </mxCell>
        <mxCell id="2" value="" style="fillColor=#CC4125;strokeColor=#660000" parent="1" vertex="1">
          <mxGeometry x="200" y="150" width="10" height="280" as="geometry" />
        </mxCell>
        <mxCell id="3" value="Пользователь открывает калькулятор" style="edgeStyle=none;verticalLabelPosition=top;verticalAlign=bottom;labelPosition=left;align=right" parent="1" edge="1">
          <mxGeometry x="110" y="49.5" width="100" height="100" as="geometry">
            <mxPoint x="110" y="149.5" as="sourcePoint" />
            <mxPoint x="200" y="149.5" as="targetPoint" />
          </mxGeometry>
        </mxCell>
        <mxCell id="4" value="АП" style="shadow=1;fillColor=#A2C4C9;strokeColor=none" parent="1" vertex="1">
          <mxGeometry x="152.5" y="60" width="105" height="50" as="geometry" />
        </mxCell>
        <mxCell id="6" value="" style="fillColor=#CC4125;strokeColor=#660000" parent="1" vertex="1">
          <mxGeometry x="612.5" y="140" width="10" height="290" as="geometry" />
        </mxCell>
        <mxCell id="7" value="Сервис калькулятора (Middle)" style="shadow=1;fillColor=#A2C4C9;strokeColor=none" parent="1" vertex="1">
          <mxGeometry x="530" y="61" width="175" height="40" as="geometry" />
        </mxCell>
        <mxCell id="8" value="" style="edgeStyle=none;endArrow=none;dashed=1" parent="1" source="7" target="6" edge="1">
          <mxGeometry x="272.3350694444445" y="165" width="100" height="100" as="geometry">
            <mxPoint x="347.2588734567901" y="110" as="sourcePoint" />
            <mxPoint x="347.5761959876544" y="165" as="targetPoint" />
          </mxGeometry>
        </mxCell>
        <mxCell id="19" value="Открытие формы калькулятора&#xa; property-valuation/GUID/Type" style="edgeStyle=elbowEdgeStyle;elbow=vertical;verticalLabelPosition=top;verticalAlign=bottom;" parent="1" edge="1">
          <mxGeometry width="100" height="100" as="geometry">
            <mxPoint x="210" y="252" as="sourcePoint" />
            <mxPoint x="370" y="252" as="targetPoint" />
            <Array as="points">
              <mxPoint x="270" y="252" />
              <mxPoint x="490" y="252" />
            </Array>
            <mxPoint y="-12" as="offset" />
          </mxGeometry>
        </mxCell>
        <mxCell id="eK3PUiwqns1HFzDT2PhF-101" style="edgeStyle=orthogonalEdgeStyle;rounded=0;orthogonalLoop=1;jettySize=auto;html=1;entryX=0.2;entryY=0.341;entryDx=0;entryDy=0;entryPerimeter=0;" parent="1" target="eK3PUiwqns1HFzDT2PhF-97" edge="1">
          <mxGeometry relative="1" as="geometry">
            <mxPoint x="623" y="250" as="sourcePoint" />
            <Array as="points">
              <mxPoint x="623" y="280" />
              <mxPoint x="1000" y="280" />
              <mxPoint x="1000" y="277" />
            </Array>
          </mxGeometry>
        </mxCell>
        <mxCell id="eK3PUiwqns1HFzDT2PhF-102" value="Получение справочников&amp;nbsp;&lt;br&gt;FIRE.DICTI.GETESTATE" style="edgeLabel;html=1;align=center;verticalAlign=middle;resizable=0;points=[];" parent="eK3PUiwqns1HFzDT2PhF-101" vertex="1" connectable="0">
          <mxGeometry x="0.16" y="-2" relative="1" as="geometry">
            <mxPoint x="-110" y="-27" as="offset" />
          </mxGeometry>
        </mxCell>
        <mxCell id="21" value="" style="fillColor=#CC4125;strokeColor=#660000" parent="1" vertex="1">
          <mxGeometry x="368.75" y="242.70000000000002" width="10" height="119.39" as="geometry" />
        </mxCell>
        <mxCell id="22" value="UI Сервиса калькулятора" style="shadow=1;fillColor=#A2C4C9;strokeColor=none" parent="1" vertex="1">
          <mxGeometry x="290" y="61" width="167.5" height="50" as="geometry" />
        </mxCell>
        <mxCell id="23" value="" style="edgeStyle=none;endArrow=none;dashed=1;entryX=0.5;entryY=1;entryDx=0;entryDy=0;" parent="1" source="22" target="eK3PUiwqns1HFzDT2PhF-168" edge="1">
          <mxGeometry x="614.4878472222224" y="174.99999999999997" width="100" height="100" as="geometry">
            <mxPoint x="674.6527777777778" y="110" as="sourcePoint" />
            <mxPoint x="380" y="1376" as="targetPoint" />
          </mxGeometry>
        </mxCell>
        <mxCell id="24" value="&lt;&lt;Cache&gt;&gt;&#xa;:Redis" style="shadow=1;fillColor=#A2C4C9;strokeColor=none" parent="1" vertex="1">
          <mxGeometry x="807.5" y="60" width="105" height="50" as="geometry" />
        </mxCell>
        <mxCell id="25" value="" style="edgeStyle=none;endArrow=none;dashed=1;entryX=0.5;entryY=1;entryDx=0;entryDy=0;" parent="1" source="24" target="eK3PUiwqns1HFzDT2PhF-170" edge="1">
          <mxGeometry x="727.3350694444446" y="165" width="100" height="100" as="geometry">
            <mxPoint x="802.2588734567901" y="110" as="sourcePoint" />
            <mxPoint x="802.5761959876544" y="165" as="targetPoint" />
          </mxGeometry>
        </mxCell>
        <mxCell id="26" value="" style="fillColor=#CC4125;strokeColor=#660000" parent="1" vertex="1">
          <mxGeometry x="855" y="719" width="10" height="100" as="geometry" />
        </mxCell>
        <mxCell id="30" value="АИС" style="shadow=1;fillColor=#A2C4C9;strokeColor=none" parent="1" vertex="1">
          <mxGeometry x="952.5" y="60" width="105" height="50" as="geometry" />
        </mxCell>
        <mxCell id="33" value="" style="edgeStyle=elbowEdgeStyle;elbow=horizontal;endArrow=none;dashed=1" parent="1" source="4" target="2" edge="1">
          <mxGeometry x="230.00000000000003" y="310" width="100" height="100" as="geometry">
            <mxPoint x="230.00000000000003" y="410" as="sourcePoint" />
            <mxPoint x="330" y="310" as="targetPoint" />
          </mxGeometry>
        </mxCell>
        <mxCell id="34" value="Сохранение Расчета в кэш" style="edgeStyle=elbowEdgeStyle;elbow=vertical;verticalLabelPosition=top;verticalAlign=bottom" parent="1" edge="1">
          <mxGeometry x="482.5" y="709.6061111111111" width="100" height="100" as="geometry">
            <mxPoint x="612.5" y="739.0004012345679" as="sourcePoint" />
            <mxPoint x="860" y="739" as="targetPoint" />
            <Array as="points" />
          </mxGeometry>
        </mxCell>
        <mxCell id="44" value="" style="edgeStyle=none;dashed=1;endArrow=none;" parent="1" source="2" edge="1">
          <mxGeometry x="50" y="300" width="100" height="100" as="geometry">
            <mxPoint x="50" y="400" as="sourcePoint" />
            <mxPoint x="205" y="1330" as="targetPoint" />
          </mxGeometry>
        </mxCell>
        <mxCell id="48" value="" style="fillColor=#CC4125;strokeColor=#660000" parent="1" vertex="1">
          <mxGeometry x="612.5" y="559.01" width="10" height="379.99" as="geometry" />
        </mxCell>
        <mxCell id="49" value="" style="fillColor=#CC4125;strokeColor=#660000" parent="1" vertex="1">
          <mxGeometry x="1000" y="559" width="10" height="160" as="geometry" />
        </mxCell>
        <mxCell id="50" value="" style="edgeStyle=none;endArrow=none;dashed=1;entryX=0.5;entryY=1;entryDx=0;entryDy=0;" parent="1" source="30" target="eK3PUiwqns1HFzDT2PhF-171" edge="1">
          <mxGeometry x="956.5711805555559" y="205" width="100" height="100" as="geometry">
            <mxPoint x="1031.7361111111113" y="150" as="sourcePoint" />
            <mxPoint x="1031.7361111111113" y="329.3942901234568" as="targetPoint" />
          </mxGeometry>
        </mxCell>
        <mxCell id="52" value="" style="edgeStyle=none;endArrow=none;dashed=1" parent="1" source="6" edge="1">
          <mxGeometry x="376.5711805555559" y="339.6971450617284" width="100" height="100" as="geometry">
            <mxPoint x="451.7361111111112" y="284.6971450617284" as="sourcePoint" />
            <mxPoint x="618" y="1140" as="targetPoint" />
          </mxGeometry>
        </mxCell>
        <mxCell id="53" value="Передача параметров объекта, для расчета&#xa;[HttppPost] calc([FromBody] CalculateQuery)" style="edgeStyle=elbowEdgeStyle;elbow=vertical;verticalLabelPosition=top;verticalAlign=bottom;exitX=0.925;exitY=0.166;exitDx=0;exitDy=0;exitPerimeter=0;" parent="1" source="eK3PUiwqns1HFzDT2PhF-111" edge="1">
          <mxGeometry y="-21" width="100" height="100" as="geometry">
            <mxPoint x="352.5" y="606.5694444444445" as="sourcePoint" />
            <mxPoint x="620" y="589" as="targetPoint" />
            <Array as="points">
              <mxPoint x="379" y="589" />
              <mxPoint x="380" y="569" />
            </Array>
            <mxPoint x="1" y="-2" as="offset" />
          </mxGeometry>
        </mxCell>
        <mxCell id="54" value="" style="edgeStyle=elbowEdgeStyle;elbow=vertical;dashed=1;verticalLabelPosition=bottom;verticalAlign=top" parent="1" edge="1">
          <mxGeometry x="697.5" y="657.9279320987653" width="100" height="100" as="geometry">
            <mxPoint x="1167.5" y="650.5861111111111" as="sourcePoint" />
            <mxPoint x="1010" y="650.92" as="targetPoint" />
            <Array as="points" />
          </mxGeometry>
        </mxCell>
        <mxCell id="eK3PUiwqns1HFzDT2PhF-130" value="Расчет" style="edgeLabel;html=1;align=center;verticalAlign=middle;resizable=0;points=[];" parent="54" vertex="1" connectable="0">
          <mxGeometry relative="1" as="geometry">
            <mxPoint x="11" y="-2" as="offset" />
          </mxGeometry>
        </mxCell>
        <mxCell id="67" value="" style="edgeStyle=elbowEdgeStyle;elbow=vertical;dashed=1;verticalLabelPosition=bottom;verticalAlign=top" parent="1" edge="1">
          <mxGeometry x="777.5" y="873.3418209876543" width="100" height="100" as="geometry">
            <mxPoint x="612.5" y="758.5" as="sourcePoint" />
            <mxPoint x="380" y="759" as="targetPoint" />
            <Array as="points" />
          </mxGeometry>
        </mxCell>
        <mxCell id="eK3PUiwqns1HFzDT2PhF-132" value="Вывод результатов расчета на UI" style="edgeLabel;html=1;align=center;verticalAlign=middle;resizable=0;points=[];" parent="67" vertex="1" connectable="0">
          <mxGeometry relative="1" as="geometry">
            <mxPoint x="-6" y="-10" as="offset" />
          </mxGeometry>
        </mxCell>
        <mxCell id="68" value="Расчет" style="edgeStyle=elbowEdgeStyle;elbow=vertical;dashed=1;verticalLabelPosition=bottom;verticalAlign=bottom;exitX=0;exitY=0.75;exitDx=0;exitDy=0;" parent="1" source="49" edge="1">
          <mxGeometry x="540" y="688.0779320987654" width="100" height="100" as="geometry">
            <mxPoint x="1137.5" y="739" as="sourcePoint" />
            <mxPoint x="620" y="679" as="targetPoint" />
            <Array as="points" />
          </mxGeometry>
        </mxCell>
        <mxCell id="71" value="Работа с калькулятором" style="rounded=1;fontStyle=1;fillColor=#FFD966;strokeColor=none" parent="1" vertex="1">
          <mxGeometry x="50" y="20" width="260" height="30" as="geometry" />
        </mxCell>
        <mxCell id="eK3PUiwqns1HFzDT2PhF-93" value="СРТ" style="shadow=1;fillColor=#A2C4C9;strokeColor=none" parent="1" vertex="1">
          <mxGeometry x="1120" y="61" width="105" height="50" as="geometry" />
        </mxCell>
        <mxCell id="eK3PUiwqns1HFzDT2PhF-97" value="" style="fillColor=#CC4125;strokeColor=#660000" parent="1" vertex="1">
          <mxGeometry x="1000" y="228.86" width="10" height="141.14" as="geometry" />
        </mxCell>
        <mxCell id="eK3PUiwqns1HFzDT2PhF-105" value="Справочники&#xa;EstateDictionary " style="edgeStyle=elbowEdgeStyle;elbow=vertical;dashed=1;verticalLabelPosition=bottom;verticalAlign=top;" parent="1" edge="1">
          <mxGeometry y="31.89" width="100" height="100" as="geometry">
            <mxPoint x="1000" y="301.89" as="sourcePoint" />
            <mxPoint x="630" y="301.89" as="targetPoint" />
            <Array as="points">
              <mxPoint x="810" y="301.89" />
            </Array>
            <mxPoint x="-95" y="-20" as="offset" />
          </mxGeometry>
        </mxCell>
        <mxCell id="eK3PUiwqns1HFzDT2PhF-107" value="Пользователь выполняет&#xa;операцию расчет" style="edgeStyle=none;verticalLabelPosition=top;verticalAlign=bottom;labelPosition=left;align=left;entryX=-0.075;entryY=0.066;entryDx=0;entryDy=0;entryPerimeter=0;" parent="1" target="eK3PUiwqns1HFzDT2PhF-111" edge="1">
          <mxGeometry y="-21" width="100" height="100" as="geometry">
            <mxPoint x="30" y="555" as="sourcePoint" />
            <mxPoint x="200" y="499" as="targetPoint" />
            <mxPoint x="-239" y="14" as="offset" />
          </mxGeometry>
        </mxCell>
        <mxCell id="eK3PUiwqns1HFzDT2PhF-111" value="" style="fillColor=#CC4125;strokeColor=#660000" parent="1" vertex="1">
          <mxGeometry x="368.75" y="529" width="10" height="380" as="geometry" />
        </mxCell>
        <mxCell id="eK3PUiwqns1HFzDT2PhF-116" value="Метод расчета &#xa;FIRE.CALCULATOR.CALCULATE" style="edgeStyle=elbowEdgeStyle;elbow=vertical;verticalLabelPosition=top;verticalAlign=bottom;exitX=1.025;exitY=0.647;exitDx=0;exitDy=0;exitPerimeter=0;" parent="1" edge="1">
          <mxGeometry x="773.5" y="582.7255555555556" width="100" height="100" as="geometry">
            <mxPoint x="622.5" y="607.9208333333333" as="sourcePoint" />
            <mxPoint x="1000" y="606" as="targetPoint" />
            <Array as="points">
              <mxPoint x="673.5" y="605.9200000000001" />
              <mxPoint x="623.5" y="585.9200000000001" />
            </Array>
          </mxGeometry>
        </mxCell>
        <mxCell id="eK3PUiwqns1HFzDT2PhF-117" value="" style="edgeStyle=none;verticalLabelPosition=top;verticalAlign=bottom;endArrow=none;startArrow=classic;dashed=1;exitX=1.1;exitY=0.179;exitDx=0;exitDy=0;exitPerimeter=0;" parent="1" source="2" edge="1">
          <mxGeometry x="220" y="132.49887345679014" width="100" height="100" as="geometry">
            <mxPoint x="210" y="219.99887345679014" as="sourcePoint" />
            <mxPoint x="610" y="200" as="targetPoint" />
          </mxGeometry>
        </mxCell>
        <mxCell id="eK3PUiwqns1HFzDT2PhF-118" value="GUID" style="edgeLabel;html=1;align=center;verticalAlign=middle;resizable=0;points=[];" parent="eK3PUiwqns1HFzDT2PhF-117" vertex="1" connectable="0">
          <mxGeometry relative="1" as="geometry">
            <mxPoint x="46" y="-13" as="offset" />
          </mxGeometry>
        </mxCell>
        <mxCell id="eK3PUiwqns1HFzDT2PhF-119" value="Создание объекта Расчет&#xa; create()" style="edgeStyle=none;verticalLabelPosition=top;verticalAlign=bottom;exitX=1.3;exitY=0.061;exitDx=0;exitDy=0;exitPerimeter=0;" parent="1" source="2" edge="1">
          <mxGeometry width="100" height="100" as="geometry">
            <mxPoint x="213" y="169.95000000000005" as="sourcePoint" />
            <mxPoint x="612" y="167" as="targetPoint" />
            <mxPoint x="47" y="-11" as="offset" />
          </mxGeometry>
        </mxCell>
        <mxCell id="eK3PUiwqns1HFzDT2PhF-123" value="Справочники&#xa;EstateDictionary " style="edgeStyle=elbowEdgeStyle;elbow=vertical;dashed=1;verticalLabelPosition=bottom;verticalAlign=top;" parent="1" edge="1">
          <mxGeometry y="30" width="100" height="100" as="geometry">
            <mxPoint x="614" y="320" as="sourcePoint" />
            <mxPoint x="380" y="320" as="targetPoint" />
            <Array as="points">
              <mxPoint x="548.75" y="320" />
            </Array>
            <mxPoint x="9" y="-43" as="offset" />
          </mxGeometry>
        </mxCell>
        <mxCell id="eK3PUiwqns1HFzDT2PhF-124" style="edgeStyle=orthogonalEdgeStyle;rounded=0;orthogonalLoop=1;jettySize=auto;html=1;" parent="1" edge="1">
          <mxGeometry relative="1" as="geometry">
            <mxPoint x="378.75" y="260.41" as="sourcePoint" />
            <mxPoint x="613" y="260" as="targetPoint" />
            <Array as="points">
              <mxPoint x="613" y="260" />
            </Array>
          </mxGeometry>
        </mxCell>
        <mxCell id="eK3PUiwqns1HFzDT2PhF-125" value="Получение справочников&amp;nbsp;&lt;br&gt;GetMaterialTypesDictionary()" style="edgeLabel;html=1;align=center;verticalAlign=middle;resizable=0;points=[];" parent="eK3PUiwqns1HFzDT2PhF-124" vertex="1" connectable="0">
          <mxGeometry x="0.16" y="-2" relative="1" as="geometry">
            <mxPoint x="-5" y="-22" as="offset" />
          </mxGeometry>
        </mxCell>
        <mxCell id="eK3PUiwqns1HFzDT2PhF-126" value="" style="edgeStyle=none;endArrow=none;dashed=1" parent="1" edge="1">
          <mxGeometry x="1123.5711805555559" y="215" width="100" height="100" as="geometry">
            <mxPoint x="1172" y="120" as="sourcePoint" />
            <mxPoint x="1172" y="440" as="targetPoint" />
          </mxGeometry>
        </mxCell>
        <mxCell id="eK3PUiwqns1HFzDT2PhF-127" value="" style="fillColor=#CC4125;strokeColor=#660000" parent="1" vertex="1">
          <mxGeometry x="1167.5" y="573.1700000000001" width="10" height="155.83" as="geometry" />
        </mxCell>
        <mxCell id="eK3PUiwqns1HFzDT2PhF-129" value="Расчет в СРТ" style="edgeStyle=elbowEdgeStyle;elbow=vertical;verticalLabelPosition=top;verticalAlign=bottom;exitX=1.025;exitY=0.647;exitDx=0;exitDy=0;exitPerimeter=0;" parent="1" edge="1">
          <mxGeometry x="1161" y="601.6355555555556" width="100" height="100" as="geometry">
            <mxPoint x="1010" y="626.8308333333334" as="sourcePoint" />
            <mxPoint x="1170" y="625" as="targetPoint" />
            <Array as="points">
              <mxPoint x="1061" y="624.83" />
              <mxPoint x="1011" y="604.83" />
            </Array>
          </mxGeometry>
        </mxCell>
        <mxCell id="eK3PUiwqns1HFzDT2PhF-133" value="" style="fillColor=#CC4125;strokeColor=#660000" parent="1" vertex="1">
          <mxGeometry x="200" y="739" width="10" height="201" as="geometry" />
        </mxCell>
        <mxCell id="eK3PUiwqns1HFzDT2PhF-134" value="" style="edgeStyle=elbowEdgeStyle;elbow=vertical;dashed=1;verticalLabelPosition=bottom;verticalAlign=top;entryX=1.1;entryY=0.393;entryDx=0;entryDy=0;entryPerimeter=0;" parent="1" edge="1" target="eK3PUiwqns1HFzDT2PhF-133">
          <mxGeometry x="776.25" y="928.3418209876543" width="100" height="100" as="geometry">
            <mxPoint x="611" y="830" as="sourcePoint" />
            <mxPoint x="220" y="822" as="targetPoint" />
            <Array as="points">
              <mxPoint x="540" y="819" />
            </Array>
          </mxGeometry>
        </mxCell>
        <mxCell id="eK3PUiwqns1HFzDT2PhF-135" value="Сообщение о завершении расчета" style="edgeLabel;html=1;align=center;verticalAlign=middle;resizable=0;points=[];" parent="eK3PUiwqns1HFzDT2PhF-134" vertex="1" connectable="0">
          <mxGeometry relative="1" as="geometry">
            <mxPoint x="-6" y="-10" as="offset" />
          </mxGeometry>
        </mxCell>
        <mxCell id="eK3PUiwqns1HFzDT2PhF-136" value="Чтение данных о расчете&#xa;[HttpGet] get/{GUID}" style="edgeStyle=elbowEdgeStyle;elbow=vertical;verticalLabelPosition=top;verticalAlign=bottom;" parent="1" edge="1">
          <mxGeometry x="351" y="845.8055555555557" width="100" height="100" as="geometry">
            <mxPoint x="210" y="872" as="sourcePoint" />
            <mxPoint x="610" y="873" as="targetPoint" />
            <Array as="points">
              <mxPoint x="251" y="869" />
              <mxPoint x="201" y="849" />
            </Array>
          </mxGeometry>
        </mxCell>
        <mxCell id="eK3PUiwqns1HFzDT2PhF-138" value="Расчет" style="edgeStyle=elbowEdgeStyle;elbow=vertical;dashed=1;verticalLabelPosition=bottom;verticalAlign=bottom;exitX=0;exitY=0.75;exitDx=0;exitDy=0;" parent="1" source="eK3PUiwqns1HFzDT2PhF-143" edge="1">
          <mxGeometry x="542.5" y="1299.0779320987654" width="100" height="100" as="geometry">
            <mxPoint x="850" y="1290" as="sourcePoint" />
            <mxPoint x="622.5" y="1290" as="targetPoint" />
            <Array as="points" />
          </mxGeometry>
        </mxCell>
        <mxCell id="eK3PUiwqns1HFzDT2PhF-141" value="" style="html=1;points=[];perimeter=orthogonalPerimeter;" parent="1" vertex="1">
          <mxGeometry x="622.5" y="1190" width="10" height="40" as="geometry" />
        </mxCell>
        <mxCell id="eK3PUiwqns1HFzDT2PhF-142" value="Проверка наличия Расчета" style="edgeStyle=orthogonalEdgeStyle;html=1;align=left;spacingLeft=2;endArrow=block;rounded=0;entryX=1;entryY=0;exitX=1;exitY=0;exitDx=0;exitDy=0;" parent="1" source="eK3PUiwqns1HFzDT2PhF-153" target="eK3PUiwqns1HFzDT2PhF-141" edge="1">
          <mxGeometry relative="1" as="geometry">
            <mxPoint x="623" y="950" as="sourcePoint" />
            <Array as="points">
              <mxPoint x="623" y="1150" />
              <mxPoint x="653" y="1150" />
              <mxPoint x="653" y="1190" />
            </Array>
          </mxGeometry>
        </mxCell>
        <mxCell id="eK3PUiwqns1HFzDT2PhF-143" value="" style="fillColor=#CC4125;strokeColor=#660000" parent="1" vertex="1">
          <mxGeometry x="1002" y="1230" width="10" height="80" as="geometry" />
        </mxCell>
        <mxCell id="eK3PUiwqns1HFzDT2PhF-147" value="Чтение расчета из БД при отсутствии в кеше&#xa;FIRE.CALCULATOR.GET.CALCULATION" style="edgeStyle=elbowEdgeStyle;elbow=vertical;verticalLabelPosition=top;verticalAlign=bottom" parent="1" edge="1">
          <mxGeometry width="100" height="100" as="geometry">
            <mxPoint x="622.5" y="1260.000401234568" as="sourcePoint" />
            <mxPoint x="994.5" y="1260.5" as="targetPoint" />
            <Array as="points" />
            <mxPoint x="-38" y="-10" as="offset" />
          </mxGeometry>
        </mxCell>
        <mxCell id="eK3PUiwqns1HFzDT2PhF-148" value="Расчет" style="edgeStyle=elbowEdgeStyle;elbow=vertical;dashed=1;verticalLabelPosition=bottom;verticalAlign=bottom;" parent="1" edge="1">
          <mxGeometry x="547.5" y="898.0779320987654" width="100" height="100" as="geometry">
            <mxPoint x="855" y="1119.5" as="sourcePoint" />
            <mxPoint x="630" y="1120" as="targetPoint" />
            <Array as="points">
              <mxPoint x="785" y="1119.5" />
              <mxPoint x="595" y="1129.5" />
            </Array>
          </mxGeometry>
        </mxCell>
        <mxCell id="eK3PUiwqns1HFzDT2PhF-149" value="Результаты расчета" style="edgeStyle=elbowEdgeStyle;elbow=vertical;dashed=1;verticalLabelPosition=bottom;verticalAlign=bottom;startArrow=none;entryX=1.1;entryY=0.84;entryDx=0;entryDy=0;exitX=0.25;exitY=1;exitDx=0;exitDy=0;entryPerimeter=0;" parent="1" source="eK3PUiwqns1HFzDT2PhF-153" target="eK3PUiwqns1HFzDT2PhF-152" edge="1">
          <mxGeometry x="305" y="1278.6979320987652" width="100" height="100" as="geometry">
            <mxPoint x="620" y="1300" as="sourcePoint" />
            <mxPoint x="250" y="1295" as="targetPoint" />
            <Array as="points">
              <mxPoint x="530" y="1330" />
            </Array>
          </mxGeometry>
        </mxCell>
        <mxCell id="eK3PUiwqns1HFzDT2PhF-152" value="" style="fillColor=#CC4125;strokeColor=#660000" parent="1" vertex="1">
          <mxGeometry x="200" y="1020" width="10" height="360" as="geometry" />
        </mxCell>
        <mxCell id="eK3PUiwqns1HFzDT2PhF-153" value="" style="fillColor=#CC4125;strokeColor=#660000" parent="1" vertex="1">
          <mxGeometry x="612.5" y="1070" width="10" height="260" as="geometry" />
        </mxCell>
        <mxCell id="eK3PUiwqns1HFzDT2PhF-154" value="" style="fillColor=#CC4125;strokeColor=#660000" parent="1" vertex="1">
          <mxGeometry x="855" y="1080" width="10" height="80" as="geometry" />
        </mxCell>
        <mxCell id="eK3PUiwqns1HFzDT2PhF-156" value="" style="edgeStyle=elbowEdgeStyle;elbow=vertical;dashed=1;verticalLabelPosition=bottom;verticalAlign=bottom;endArrow=none;entryX=0.5;entryY=1;entryDx=0;entryDy=0;" parent="1" target="eK3PUiwqns1HFzDT2PhF-169" edge="1">
          <mxGeometry x="305" y="1278.6979320987652" width="100" height="100" as="geometry">
            <mxPoint x="618" y="1270" as="sourcePoint" />
            <mxPoint x="210" y="1269" as="targetPoint" />
            <Array as="points" />
          </mxGeometry>
        </mxCell>
        <mxCell id="eK3PUiwqns1HFzDT2PhF-160" value="Пользователь читает существующий Расчет &#xa;(Например, открытие договора с существующим расчетом)" style="edgeStyle=none;verticalLabelPosition=top;verticalAlign=bottom;labelPosition=left;align=center;" parent="1" edge="1">
          <mxGeometry y="150" width="100" height="100" as="geometry">
            <mxPoint x="110" y="1050" as="sourcePoint" />
            <mxPoint x="200" y="1050" as="targetPoint" />
            <mxPoint x="-65" y="-10" as="offset" />
          </mxGeometry>
        </mxCell>
        <mxCell id="eK3PUiwqns1HFzDT2PhF-161" value="Чтение данных о расчете&#xa;[HttpGet] get/{GUID}" style="edgeStyle=none;verticalLabelPosition=top;verticalAlign=bottom;labelPosition=left;align=right;entryX=-0.25;entryY=0.038;entryDx=0;entryDy=0;entryPerimeter=0;" parent="1" target="eK3PUiwqns1HFzDT2PhF-153" edge="1">
          <mxGeometry y="150" width="100" height="100" as="geometry">
            <mxPoint x="210" y="1080" as="sourcePoint" />
            <mxPoint x="549" y="1080" as="targetPoint" />
            <mxPoint x="10" y="-20" as="offset" />
          </mxGeometry>
        </mxCell>
        <mxCell id="eK3PUiwqns1HFzDT2PhF-162" value="" style="html=1;points=[];perimeter=orthogonalPerimeter;" parent="1" vertex="1">
          <mxGeometry x="618" y="889" width="10" height="40" as="geometry" />
        </mxCell>
        <mxCell id="eK3PUiwqns1HFzDT2PhF-163" value="Выполняется use case Чтение расчета" style="edgeStyle=orthogonalEdgeStyle;html=1;align=left;spacingLeft=2;endArrow=block;rounded=0;entryX=1;entryY=0;" parent="1" target="eK3PUiwqns1HFzDT2PhF-162" edge="1">
          <mxGeometry relative="1" as="geometry">
            <mxPoint x="623" y="869" as="sourcePoint" />
            <Array as="points">
              <mxPoint x="653" y="869" />
            </Array>
          </mxGeometry>
        </mxCell>
        <mxCell id="eK3PUiwqns1HFzDT2PhF-164" value="Чтение Расчета из кэша" style="edgeStyle=elbowEdgeStyle;elbow=vertical;verticalLabelPosition=top;verticalAlign=bottom" parent="1" edge="1">
          <mxGeometry x="482.5" y="1070.6061111111112" width="100" height="100" as="geometry">
            <mxPoint x="612.5" y="1100.000401234568" as="sourcePoint" />
            <mxPoint x="860" y="1100" as="targetPoint" />
            <Array as="points" />
          </mxGeometry>
        </mxCell>
        <mxCell id="eK3PUiwqns1HFzDT2PhF-167" value="Пользователь сохраняет Расчет" style="edgeStyle=none;verticalLabelPosition=top;verticalAlign=bottom;labelPosition=left;align=center;" parent="1" edge="1">
          <mxGeometry y="150" width="100" height="100" as="geometry">
            <mxPoint x="-40" y="1510" as="sourcePoint" />
            <mxPoint x="370" y="1510" as="targetPoint" />
            <mxPoint x="-132" y="-11" as="offset" />
          </mxGeometry>
        </mxCell>
        <mxCell id="eK3PUiwqns1HFzDT2PhF-168" value="" style="fillColor=#CC4125;strokeColor=#660000" parent="1" vertex="1">
          <mxGeometry x="368.75" y="1508" width="10" height="260" as="geometry" />
        </mxCell>
        <mxCell id="eK3PUiwqns1HFzDT2PhF-169" value="" style="fillColor=#CC4125;strokeColor=#660000" parent="1" vertex="1">
          <mxGeometry x="612.5" y="1538" width="10" height="190" as="geometry" />
        </mxCell>
        <mxCell id="eK3PUiwqns1HFzDT2PhF-170" value="" style="fillColor=#CC4125;strokeColor=#660000" parent="1" vertex="1">
          <mxGeometry x="855" y="1568" width="10" height="90" as="geometry" />
        </mxCell>
        <mxCell id="eK3PUiwqns1HFzDT2PhF-171" value="" style="fillColor=#CC4125;strokeColor=#660000" parent="1" vertex="1">
          <mxGeometry x="1003" y="1668" width="10" height="80" as="geometry" />
        </mxCell>
        <mxCell id="eK3PUiwqns1HFzDT2PhF-172" value="Сохраненеи Расчета" style="edgeStyle=none;verticalLabelPosition=top;verticalAlign=bottom;labelPosition=left;align=right;" parent="1" edge="1">
          <mxGeometry y="178" width="100" height="100" as="geometry">
            <mxPoint x="378.75" y="1568.12" as="sourcePoint" />
            <mxPoint x="610" y="1568" as="targetPoint" />
            <mxPoint x="51" y="-10" as="offset" />
          </mxGeometry>
        </mxCell>
        <mxCell id="eK3PUiwqns1HFzDT2PhF-173" value="Сохраненеи Расчета" style="edgeStyle=none;verticalLabelPosition=top;verticalAlign=bottom;labelPosition=left;align=right;" parent="1" edge="1">
          <mxGeometry x="243.75" y="208" width="100" height="100" as="geometry">
            <mxPoint x="622.5" y="1598.12" as="sourcePoint" />
            <mxPoint x="853.75" y="1598" as="targetPoint" />
            <mxPoint x="51" y="-10" as="offset" />
          </mxGeometry>
        </mxCell>
        <mxCell id="eK3PUiwqns1HFzDT2PhF-174" value="Сохраненеи Расчета" style="edgeStyle=none;verticalLabelPosition=top;verticalAlign=bottom;labelPosition=left;align=right;entryX=0;entryY=0.25;entryDx=0;entryDy=0;" parent="1" target="eK3PUiwqns1HFzDT2PhF-171" edge="1">
          <mxGeometry x="239.25" y="298" width="100" height="100" as="geometry">
            <mxPoint x="618" y="1688.12" as="sourcePoint" />
            <mxPoint x="849.25" y="1688" as="targetPoint" />
            <mxPoint x="51" y="-10" as="offset" />
          </mxGeometry>
        </mxCell>
        <mxCell id="eK3PUiwqns1HFzDT2PhF-176" value="Сообщение о завершении операции" style="edgeStyle=elbowEdgeStyle;elbow=vertical;dashed=1;verticalLabelPosition=bottom;verticalAlign=bottom;exitX=0;exitY=0.75;exitDx=0;exitDy=0;" parent="1" edge="1">
          <mxGeometry x="158.5" y="1727.0779320987654" width="100" height="100" as="geometry">
            <mxPoint x="618" y="1718" as="sourcePoint" />
            <mxPoint x="380" y="1718" as="targetPoint" />
            <Array as="points" />
          </mxGeometry>
        </mxCell>
        <mxCell id="LyPdqDv2ucE_iKHSO26V-72" value="Установка WebSocket соединения" style="endArrow=classic;startArrow=classic;html=1;entryX=-0.05;entryY=0.897;entryDx=0;entryDy=0;entryPerimeter=0;" edge="1" parent="1" target="6">
          <mxGeometry x="-0.005" y="10" width="50" height="50" relative="1" as="geometry">
            <mxPoint x="210" y="400" as="sourcePoint" />
            <mxPoint x="260" y="350" as="targetPoint" />
            <mxPoint as="offset" />
          </mxGeometry>
        </mxCell>
        <mxCell id="LyPdqDv2ucE_iKHSO26V-75" value="" style="edgeStyle=elbowEdgeStyle;elbow=vertical;dashed=1;verticalLabelPosition=bottom;verticalAlign=top;entryX=1;entryY=0.9;entryDx=0;entryDy=0;entryPerimeter=0;" edge="1" parent="1" target="eK3PUiwqns1HFzDT2PhF-133">
          <mxGeometry x="776.25" y="1034.8418209876543" width="100" height="100" as="geometry">
            <mxPoint x="611.25" y="920" as="sourcePoint" />
            <mxPoint x="378.75" y="920.5" as="targetPoint" />
            <Array as="points" />
          </mxGeometry>
        </mxCell>
        <mxCell id="LyPdqDv2ucE_iKHSO26V-76" value="Вывод результатов расчета на UI АП" style="edgeLabel;html=1;align=center;verticalAlign=middle;resizable=0;points=[];" vertex="1" connectable="0" parent="LyPdqDv2ucE_iKHSO26V-75">
          <mxGeometry relative="1" as="geometry">
            <mxPoint x="-6" y="-10" as="offset" />
          </mxGeometry>
        </mxCell>
      </root>
    </mxGraphModel>
  </diagram>
</mxfile>
